<svg width="24" height="24" viewBox="0 0 24 24" fill="none" xmlns="http://www.w3.org/2000/svg">
<path d="M15 12C15 11.1873 14.703 10.4843 14.109 9.891C13.515 9.29767 12.812 9.00067 12 9V6.984C13.3753 6.984 14.555 7.47633 15.539 8.461C16.523 9.44567 17.0153 10.6253 17.016 12H15V12ZM18.984 12C18.984 10.0627 18.3043 8.41433 16.945 7.055C15.5857 5.69567 13.9373 5.016 12 5.016V3C14.5 3 16.625 3.875 18.375 5.625C20.125 7.375 21 9.5 21 12H18.984ZM20.016 15.516C20.2973 15.516 20.5317 15.6097 20.719 15.797C20.9063 15.9843 21 16.2187 21 16.5V20.016C21 20.2973 20.9063 20.5317 20.719 20.719C20.5317 20.9063 20.2973 21 20.016 21C15.3287 21 11.321 19.336 7.993 16.008C4.665 12.68 3.001 8.67233 3.001 3.985C3.001 3.70367 3.09467 3.46933 3.282 3.282C3.46933 3.09467 3.70367 3.001 3.985 3.001H7.501C7.78233 3.001 8.01667 3.09467 8.204 3.282C8.39133 3.46933 8.485 3.70367 8.485 3.985V4.032C8.485 5.31333 8.67267 6.48533 9.048 7.548C9.11067 7.67333 9.142 7.78267 9.142 7.876C9.142 8.18867 9.03267 8.423 8.814 8.579L6.611 10.782C7.23633 11.9693 8.19733 13.2117 9.494 14.509C10.7907 15.8063 12.033 16.7673 13.221 17.392L15.424 15.189C15.6427 14.9703 15.877 14.861 16.127 14.861C16.221 14.861 16.3303 14.8923 16.455 14.955C17.5803 15.3303 18.768 15.518 20.018 15.518L20.016 15.516Z" fill="white"/>
</svg>
