<svg width="24" height="24" viewBox="0 0 24 24" fill="none" xmlns="http://www.w3.org/2000/svg">
<path d="M15.279 10.283C15.637 10.062 15.876 9.762 15.992 9.379C15.643 9.565 15.295 9.691 14.947 9.762C14.635 9.426 14.239 9.255 13.765 9.255C13.301 9.255 12.91 9.418 12.59 9.734C12.273 10.052 12.112 10.44 12.112 10.892C12.112 11.029 12.129 11.152 12.164 11.256C10.796 11.208 9.665 10.642 8.773 9.55C8.622 9.817 8.546 10.089 8.546 10.37C8.546 10.948 8.79 11.406 9.276 11.743C8.999 11.72 8.755 11.649 8.546 11.534C8.546 11.947 8.667 12.292 8.911 12.596C9.154 12.896 9.468 13.088 9.85 13.169C9.711 13.205 9.565 13.222 9.415 13.222C9.275 13.222 9.178 13.21 9.119 13.185C9.223 13.522 9.415 13.794 9.693 14.003C9.97 14.213 10.29 14.323 10.65 14.333C10.059 14.798 9.381 15.027 8.615 15.027C8.427 15.027 8.295 15.025 8.215 15.01C8.969 15.499 9.809 15.743 10.736 15.743C11.687 15.743 12.528 15.502 13.258 15.02C13.988 14.541 14.529 13.95 14.875 13.253C15.223 12.558 15.396 11.834 15.396 11.079V10.87C15.732 10.617 16.005 10.332 16.214 10.016C15.916 10.149 15.603 10.238 15.279 10.283V10.283Z" fill="white"/>
<path d="M12 21C9.51 21 7.365 20.11 5.624 18.354C3.883 16.603 3 14.465 3 12C3 9.512 3.884 7.366 5.627 5.625C7.367 3.884 9.511 3 12 3C14.466 3 16.604 3.883 18.354 5.624C20.11 7.366 21 9.512 21 12C21 14.465 20.111 16.604 18.356 18.357C16.605 20.11 14.467 21 12 21V21ZM12 5C10.034 5 8.412 5.667 7.042 7.04C5.667 8.412 5 10.034 5 12C5 13.944 5.668 15.562 7.043 16.945C8.415 18.328 10.036 19 12 19C13.943 19 15.56 18.327 16.942 16.943C18.327 15.559 19 13.941 19 12C19 10.037 18.328 8.415 16.945 7.043C15.562 5.668 13.945 5 12 5V5Z" fill="white"/>
</svg>
